<?xml version="1.0" standalone="no"?><svg xmlns="http://www.w3.org/2000/svg" viewBox="0 0 1440 320"><path fill="#502C0C" fill-opacity="1" d="M0,160L24,165.3C48,171,96,181,144,154.7C192,128,240,64,288,42.7C336,21,384,43,432,85.3C480,128,528,192,576,181.3C624,171,672,85,720,85.3C768,85,816,171,864,192C912,213,960,171,1008,165.3C1056,160,1104,192,1152,181.3C1200,171,1248,117,1296,96C1344,75,1392,85,1416,90.7L1440,96L1440,0L1416,0C1392,0,1344,0,1296,0C1248,0,1200,0,1152,0C1104,0,1056,0,1008,0C960,0,912,0,864,0C816,0,768,0,720,0C672,0,624,0,576,0C528,0,480,0,432,0C384,0,336,0,288,0C240,0,192,0,144,0C96,0,48,0,24,0L0,0Z"></path></svg>