<?xml version="1.0" standalone="no"?><svg xmlns="http://www.w3.org/2000/svg" viewBox="0 0 1440 320"><path fill="#502C0C" fill-opacity="1" d="M0,256L24,256C48,256,96,256,144,229.3C192,203,240,149,288,138.7C336,128,384,160,432,186.7C480,213,528,235,576,208C624,181,672,107,720,90.7C768,75,816,117,864,128C912,139,960,117,1008,90.7C1056,64,1104,32,1152,64C1200,96,1248,192,1296,234.7C1344,277,1392,267,1416,261.3L1440,256L1440,0L1416,0C1392,0,1344,0,1296,0C1248,0,1200,0,1152,0C1104,0,1056,0,1008,0C960,0,912,0,864,0C816,0,768,0,720,0C672,0,624,0,576,0C528,0,480,0,432,0C384,0,336,0,288,0C240,0,192,0,144,0C96,0,48,0,24,0L0,0Z"></path></svg>