<?xml version="1.0" standalone="no"?><svg xmlns="http://www.w3.org/2000/svg" viewBox="0 0 1440 320"><path fill="#502C0C" fill-opacity="1" d="M0,32L24,53.3C48,75,96,117,144,122.7C192,128,240,96,288,96C336,96,384,128,432,154.7C480,181,528,203,576,208C624,213,672,203,720,208C768,213,816,235,864,240C912,245,960,235,1008,218.7C1056,203,1104,181,1152,186.7C1200,192,1248,224,1296,224C1344,224,1392,192,1416,176L1440,160L1440,320L1416,320C1392,320,1344,320,1296,320C1248,320,1200,320,1152,320C1104,320,1056,320,1008,320C960,320,912,320,864,320C816,320,768,320,720,320C672,320,624,320,576,320C528,320,480,320,432,320C384,320,336,320,288,320C240,320,192,320,144,320C96,320,48,320,24,320L0,320Z"></path></svg>