<?xml version="1.0" standalone="no"?><svg xmlns="http://www.w3.org/2000/svg" viewBox="0 0 1440 320"><path fill="#502C0C" fill-opacity="1" d="M0,224L24,234.7C48,245,96,267,144,250.7C192,235,240,181,288,154.7C336,128,384,128,432,149.3C480,171,528,213,576,218.7C624,224,672,192,720,186.7C768,181,816,203,864,224C912,245,960,267,1008,261.3C1056,256,1104,224,1152,213.3C1200,203,1248,213,1296,208C1344,203,1392,181,1416,170.7L1440,160L1440,320L1416,320C1392,320,1344,320,1296,320C1248,320,1200,320,1152,320C1104,320,1056,320,1008,320C960,320,912,320,864,320C816,320,768,320,720,320C672,320,624,320,576,320C528,320,480,320,432,320C384,320,336,320,288,320C240,320,192,320,144,320C96,320,48,320,24,320L0,320Z"></path></svg>